<svg width="194" height="194" viewBox="0 0 194 194" fill="none" xmlns="http://www.w3.org/2000/svg">
<path d="M96.9996 0.000770153C71.2731 0.000770153 46.602 10.2208 28.4106 28.4114C10.22 46.602 0 71.2761 0 97.0004C0 122.725 10.22 147.398 28.4106 165.589C46.6012 183.78 71.2754 194 96.9996 194C122.724 194 147.397 183.78 165.589 165.589C183.779 147.399 193.999 122.725 193.999 97.0004C193.971 71.2831 183.742 46.6297 165.557 28.4422C147.371 10.2577 122.715 0.028869 96.9988 0L96.9996 0.000770153ZM96.9996 176.756C75.8471 176.756 55.5591 168.354 40.6049 153.396C25.6473 138.44 17.2448 118.153 17.2448 97.0015C17.2448 75.8498 25.6469 55.561 40.6049 40.6068C55.561 25.6492 75.8478 17.2468 96.9996 17.2468C118.151 17.2468 138.44 25.6488 153.394 40.6068C168.352 55.5629 176.754 75.8498 176.754 97.0015C176.73 118.147 168.321 138.419 153.369 153.373C138.417 168.327 118.144 176.734 96.9973 176.759L96.9996 176.756ZM86.2218 43.1119C86.2218 40.2535 87.357 37.5124 89.3779 35.4916C91.4002 33.4693 94.1413 32.3341 96.9997 32.3341C99.8581 32.3341 102.599 33.4693 104.622 35.4916C106.642 37.5124 107.778 40.2535 107.778 43.1119C107.778 45.9703 106.642 48.7113 104.622 50.7337C102.599 52.7545 99.8581 53.8897 96.9997 53.8897C94.1413 53.8897 91.4002 52.7545 89.3779 50.7337C87.357 48.7114 86.2218 45.9703 86.2218 43.1119ZM120.711 140.897V146.576C120.711 148.958 118.779 150.889 116.398 150.889H77.6015C75.2198 150.889 73.2877 148.958 73.2877 146.576V140.897C73.2877 139.018 74.5057 137.355 76.2979 136.786L85.175 133.974H85.1765C85.799 133.777 86.2214 133.2 86.2214 132.546V88.3764H79.4449C77.4677 88.3764 75.6123 87.4261 74.4544 85.8233C73.2967 84.2219 72.9794 82.1605 73.6004 80.2839C74.2214 78.4074 75.7069 76.9429 77.5924 76.3473L102.161 68.5919C103.474 68.1785 104.904 68.4145 106.012 69.2279C107.121 70.0399 107.777 71.333 107.777 72.7088V132.545C107.777 133.199 108.2 133.776 108.822 133.973L117.699 136.785H117.701C119.493 137.353 120.711 139.016 120.711 140.896L120.711 140.897Z" fill="white"/>
</svg>
